<?xml version="1.0" encoding="utf-8" standalone="no"?>
<!DOCTYPE svg PUBLIC "-//W3C//DTD SVG 1.1//EN"
  "http://www.w3.org/Graphics/SVG/1.1/DTD/svg11.dtd">
<svg xmlns:xlink="http://www.w3.org/1999/xlink" width="460.8pt" height="345.6pt" viewBox="0 0 460.8 345.6" xmlns="http://www.w3.org/2000/svg" version="1.1">
 <metadata>
  <rdf:RDF xmlns:dc="http://purl.org/dc/elements/1.1/" xmlns:cc="http://creativecommons.org/ns#" xmlns:rdf="http://www.w3.org/1999/02/22-rdf-syntax-ns#">
   <cc:Work>
    <dc:type rdf:resource="http://purl.org/dc/dcmitype/StillImage"/>
    <dc:date>2024-05-04T15:48:21.483957</dc:date>
    <dc:format>image/svg+xml</dc:format>
    <dc:creator>
     <cc:Agent>
      <dc:title>Matplotlib v3.8.4, https://matplotlib.org/</dc:title>
     </cc:Agent>
    </dc:creator>
   </cc:Work>
  </rdf:RDF>
 </metadata>
 <defs>
  <style type="text/css">*{stroke-linejoin: round; stroke-linecap: butt}</style>
 </defs>
 <g id="figure_1">
  <g id="patch_1">
   <path d="M 0 345.6 
L 460.8 345.6 
L 460.8 0 
L 0 0 
z
" style="fill: #ffffff"/>
  </g>
  <g id="axes_1">
   <g id="patch_2">
    <path d="M 57.6 307.584 
L 414.72 307.584 
L 414.72 41.472 
L 57.6 41.472 
z
" style="fill: #ffffff"/>
   </g>
   <g id="patch_3">
    <path d="M 73.832727 307.584 
L 95.476364 307.584 
L 95.476364 54.144 
L 73.832727 54.144 
z
" clip-path="url(#p4c58abe72e)" style="fill: #1f77b4; fill-opacity: 0.75; stroke: #000000; stroke-linejoin: miter"/>
   </g>
   <g id="patch_4">
    <path d="M 95.476364 307.584 
L 117.12 307.584 
L 117.12 79.894588 
L 95.476364 79.894588 
z
" clip-path="url(#p4c58abe72e)" style="fill: #1f77b4; fill-opacity: 0.75; stroke: #000000; stroke-linejoin: miter"/>
   </g>
   <g id="patch_5">
    <path d="M 117.12 307.584 
L 138.763636 307.584 
L 138.763636 161.212235 
L 117.12 161.212235 
z
" clip-path="url(#p4c58abe72e)" style="fill: #1f77b4; fill-opacity: 0.75; stroke: #000000; stroke-linejoin: miter"/>
   </g>
   <g id="patch_6">
    <path d="M 138.763636 307.584 
L 160.407273 307.584 
L 160.407273 212.713412 
L 138.763636 212.713412 
z
" clip-path="url(#p4c58abe72e)" style="fill: #1f77b4; fill-opacity: 0.75; stroke: #000000; stroke-linejoin: miter"/>
   </g>
   <g id="patch_7">
    <path d="M 160.407273 307.584 
L 182.050909 307.584 
L 182.050909 247.951059 
L 160.407273 247.951059 
z
" clip-path="url(#p4c58abe72e)" style="fill: #1f77b4; fill-opacity: 0.75; stroke: #000000; stroke-linejoin: miter"/>
   </g>
   <g id="patch_8">
    <path d="M 182.050909 307.584 
L 203.694545 307.584 
L 203.694545 241.174588 
L 182.050909 241.174588 
z
" clip-path="url(#p4c58abe72e)" style="fill: #1f77b4; fill-opacity: 0.75; stroke: #000000; stroke-linejoin: miter"/>
   </g>
   <g id="patch_9">
    <path d="M 203.694545 307.584 
L 225.338182 307.584 
L 225.338182 242.529882 
L 203.694545 242.529882 
z
" clip-path="url(#p4c58abe72e)" style="fill: #1f77b4; fill-opacity: 0.75; stroke: #000000; stroke-linejoin: miter"/>
   </g>
   <g id="patch_10">
    <path d="M 225.338182 307.584 
L 246.981818 307.584 
L 246.981818 262.859294 
L 225.338182 262.859294 
z
" clip-path="url(#p4c58abe72e)" style="fill: #1f77b4; fill-opacity: 0.75; stroke: #000000; stroke-linejoin: miter"/>
   </g>
   <g id="patch_11">
    <path d="M 246.981818 307.584 
L 268.625455 307.584 
L 268.625455 280.478118 
L 246.981818 280.478118 
z
" clip-path="url(#p4c58abe72e)" style="fill: #1f77b4; fill-opacity: 0.75; stroke: #000000; stroke-linejoin: miter"/>
   </g>
   <g id="patch_12">
    <path d="M 268.625455 307.584 
L 290.269091 307.584 
L 290.269091 285.899294 
L 268.625455 285.899294 
z
" clip-path="url(#p4c58abe72e)" style="fill: #1f77b4; fill-opacity: 0.75; stroke: #000000; stroke-linejoin: miter"/>
   </g>
   <g id="patch_13">
    <path d="M 290.269091 307.584 
L 311.912727 307.584 
L 311.912727 280.478118 
L 290.269091 280.478118 
z
" clip-path="url(#p4c58abe72e)" style="fill: #1f77b4; fill-opacity: 0.75; stroke: #000000; stroke-linejoin: miter"/>
   </g>
   <g id="patch_14">
    <path d="M 311.912727 307.584 
L 333.556364 307.584 
L 333.556364 292.675765 
L 311.912727 292.675765 
z
" clip-path="url(#p4c58abe72e)" style="fill: #1f77b4; fill-opacity: 0.75; stroke: #000000; stroke-linejoin: miter"/>
   </g>
   <g id="patch_15">
    <path d="M 333.556364 307.584 
L 355.2 307.584 
L 355.2 295.386353 
L 333.556364 295.386353 
z
" clip-path="url(#p4c58abe72e)" style="fill: #1f77b4; fill-opacity: 0.75; stroke: #000000; stroke-linejoin: miter"/>
   </g>
   <g id="patch_16">
    <path d="M 355.2 307.584 
L 376.843636 307.584 
L 376.843636 288.609882 
L 355.2 288.609882 
z
" clip-path="url(#p4c58abe72e)" style="fill: #1f77b4; fill-opacity: 0.75; stroke: #000000; stroke-linejoin: miter"/>
   </g>
   <g id="patch_17">
    <path d="M 376.843636 307.584 
L 398.487273 307.584 
L 398.487273 287.254588 
L 376.843636 287.254588 
z
" clip-path="url(#p4c58abe72e)" style="fill: #1f77b4; fill-opacity: 0.75; stroke: #000000; stroke-linejoin: miter"/>
   </g>
   <g id="patch_18">
    <path d="M 73.832727 307.584 
L 95.476364 307.584 
L 95.476364 54.144 
L 73.832727 54.144 
z
" clip-path="url(#p4c58abe72e)" style="fill: #ff7f0e; fill-opacity: 0.75; stroke: #000000; stroke-linejoin: miter"/>
   </g>
   <g id="patch_19">
    <path d="M 95.476364 307.584 
L 117.12 307.584 
L 117.12 79.894588 
L 95.476364 79.894588 
z
" clip-path="url(#p4c58abe72e)" style="fill: #ff7f0e; fill-opacity: 0.75; stroke: #000000; stroke-linejoin: miter"/>
   </g>
   <g id="patch_20">
    <path d="M 117.12 307.584 
L 138.763636 307.584 
L 138.763636 161.212235 
L 117.12 161.212235 
z
" clip-path="url(#p4c58abe72e)" style="fill: #ff7f0e; fill-opacity: 0.75; stroke: #000000; stroke-linejoin: miter"/>
   </g>
   <g id="patch_21">
    <path d="M 138.763636 307.584 
L 160.407273 307.584 
L 160.407273 212.713412 
L 138.763636 212.713412 
z
" clip-path="url(#p4c58abe72e)" style="fill: #ff7f0e; fill-opacity: 0.75; stroke: #000000; stroke-linejoin: miter"/>
   </g>
   <g id="patch_22">
    <path d="M 160.407273 307.584 
L 182.050909 307.584 
L 182.050909 247.951059 
L 160.407273 247.951059 
z
" clip-path="url(#p4c58abe72e)" style="fill: #ff7f0e; fill-opacity: 0.75; stroke: #000000; stroke-linejoin: miter"/>
   </g>
   <g id="patch_23">
    <path d="M 182.050909 307.584 
L 203.694545 307.584 
L 203.694545 241.174588 
L 182.050909 241.174588 
z
" clip-path="url(#p4c58abe72e)" style="fill: #ff7f0e; fill-opacity: 0.75; stroke: #000000; stroke-linejoin: miter"/>
   </g>
   <g id="patch_24">
    <path d="M 203.694545 307.584 
L 225.338182 307.584 
L 225.338182 242.529882 
L 203.694545 242.529882 
z
" clip-path="url(#p4c58abe72e)" style="fill: #ff7f0e; fill-opacity: 0.75; stroke: #000000; stroke-linejoin: miter"/>
   </g>
   <g id="patch_25">
    <path d="M 225.338182 307.584 
L 246.981818 307.584 
L 246.981818 262.859294 
L 225.338182 262.859294 
z
" clip-path="url(#p4c58abe72e)" style="fill: #ff7f0e; fill-opacity: 0.75; stroke: #000000; stroke-linejoin: miter"/>
   </g>
   <g id="patch_26">
    <path d="M 246.981818 307.584 
L 268.625455 307.584 
L 268.625455 280.478118 
L 246.981818 280.478118 
z
" clip-path="url(#p4c58abe72e)" style="fill: #ff7f0e; fill-opacity: 0.75; stroke: #000000; stroke-linejoin: miter"/>
   </g>
   <g id="patch_27">
    <path d="M 268.625455 307.584 
L 290.269091 307.584 
L 290.269091 285.899294 
L 268.625455 285.899294 
z
" clip-path="url(#p4c58abe72e)" style="fill: #ff7f0e; fill-opacity: 0.75; stroke: #000000; stroke-linejoin: miter"/>
   </g>
   <g id="patch_28">
    <path d="M 290.269091 307.584 
L 311.912727 307.584 
L 311.912727 280.478118 
L 290.269091 280.478118 
z
" clip-path="url(#p4c58abe72e)" style="fill: #ff7f0e; fill-opacity: 0.75; stroke: #000000; stroke-linejoin: miter"/>
   </g>
   <g id="patch_29">
    <path d="M 311.912727 307.584 
L 333.556364 307.584 
L 333.556364 292.675765 
L 311.912727 292.675765 
z
" clip-path="url(#p4c58abe72e)" style="fill: #ff7f0e; fill-opacity: 0.75; stroke: #000000; stroke-linejoin: miter"/>
   </g>
   <g id="patch_30">
    <path d="M 333.556364 307.584 
L 355.2 307.584 
L 355.2 295.386353 
L 333.556364 295.386353 
z
" clip-path="url(#p4c58abe72e)" style="fill: #ff7f0e; fill-opacity: 0.75; stroke: #000000; stroke-linejoin: miter"/>
   </g>
   <g id="patch_31">
    <path d="M 355.2 307.584 
L 376.843636 307.584 
L 376.843636 288.609882 
L 355.2 288.609882 
z
" clip-path="url(#p4c58abe72e)" style="fill: #ff7f0e; fill-opacity: 0.75; stroke: #000000; stroke-linejoin: miter"/>
   </g>
   <g id="patch_32">
    <path d="M 376.843636 307.584 
L 398.487273 307.584 
L 398.487273 287.254588 
L 376.843636 287.254588 
z
" clip-path="url(#p4c58abe72e)" style="fill: #ff7f0e; fill-opacity: 0.75; stroke: #000000; stroke-linejoin: miter"/>
   </g>
   <g id="patch_33">
    <path d="M 73.832727 307.584 
L 95.476364 307.584 
L 95.476364 54.144 
L 73.832727 54.144 
z
" clip-path="url(#p4c58abe72e)" style="fill: #2ca02c; fill-opacity: 0.75; stroke: #000000; stroke-linejoin: miter"/>
   </g>
   <g id="patch_34">
    <path d="M 95.476364 307.584 
L 117.12 307.584 
L 117.12 79.894588 
L 95.476364 79.894588 
z
" clip-path="url(#p4c58abe72e)" style="fill: #2ca02c; fill-opacity: 0.75; stroke: #000000; stroke-linejoin: miter"/>
   </g>
   <g id="patch_35">
    <path d="M 117.12 307.584 
L 138.763636 307.584 
L 138.763636 161.212235 
L 117.12 161.212235 
z
" clip-path="url(#p4c58abe72e)" style="fill: #2ca02c; fill-opacity: 0.75; stroke: #000000; stroke-linejoin: miter"/>
   </g>
   <g id="patch_36">
    <path d="M 138.763636 307.584 
L 160.407273 307.584 
L 160.407273 212.713412 
L 138.763636 212.713412 
z
" clip-path="url(#p4c58abe72e)" style="fill: #2ca02c; fill-opacity: 0.75; stroke: #000000; stroke-linejoin: miter"/>
   </g>
   <g id="patch_37">
    <path d="M 160.407273 307.584 
L 182.050909 307.584 
L 182.050909 247.951059 
L 160.407273 247.951059 
z
" clip-path="url(#p4c58abe72e)" style="fill: #2ca02c; fill-opacity: 0.75; stroke: #000000; stroke-linejoin: miter"/>
   </g>
   <g id="patch_38">
    <path d="M 182.050909 307.584 
L 203.694545 307.584 
L 203.694545 241.174588 
L 182.050909 241.174588 
z
" clip-path="url(#p4c58abe72e)" style="fill: #2ca02c; fill-opacity: 0.75; stroke: #000000; stroke-linejoin: miter"/>
   </g>
   <g id="patch_39">
    <path d="M 203.694545 307.584 
L 225.338182 307.584 
L 225.338182 242.529882 
L 203.694545 242.529882 
z
" clip-path="url(#p4c58abe72e)" style="fill: #2ca02c; fill-opacity: 0.75; stroke: #000000; stroke-linejoin: miter"/>
   </g>
   <g id="patch_40">
    <path d="M 225.338182 307.584 
L 246.981818 307.584 
L 246.981818 262.859294 
L 225.338182 262.859294 
z
" clip-path="url(#p4c58abe72e)" style="fill: #2ca02c; fill-opacity: 0.75; stroke: #000000; stroke-linejoin: miter"/>
   </g>
   <g id="patch_41">
    <path d="M 246.981818 307.584 
L 268.625455 307.584 
L 268.625455 280.478118 
L 246.981818 280.478118 
z
" clip-path="url(#p4c58abe72e)" style="fill: #2ca02c; fill-opacity: 0.75; stroke: #000000; stroke-linejoin: miter"/>
   </g>
   <g id="patch_42">
    <path d="M 268.625455 307.584 
L 290.269091 307.584 
L 290.269091 285.899294 
L 268.625455 285.899294 
z
" clip-path="url(#p4c58abe72e)" style="fill: #2ca02c; fill-opacity: 0.75; stroke: #000000; stroke-linejoin: miter"/>
   </g>
   <g id="patch_43">
    <path d="M 290.269091 307.584 
L 311.912727 307.584 
L 311.912727 280.478118 
L 290.269091 280.478118 
z
" clip-path="url(#p4c58abe72e)" style="fill: #2ca02c; fill-opacity: 0.75; stroke: #000000; stroke-linejoin: miter"/>
   </g>
   <g id="patch_44">
    <path d="M 311.912727 307.584 
L 333.556364 307.584 
L 333.556364 292.675765 
L 311.912727 292.675765 
z
" clip-path="url(#p4c58abe72e)" style="fill: #2ca02c; fill-opacity: 0.75; stroke: #000000; stroke-linejoin: miter"/>
   </g>
   <g id="patch_45">
    <path d="M 333.556364 307.584 
L 355.2 307.584 
L 355.2 295.386353 
L 333.556364 295.386353 
z
" clip-path="url(#p4c58abe72e)" style="fill: #2ca02c; fill-opacity: 0.75; stroke: #000000; stroke-linejoin: miter"/>
   </g>
   <g id="patch_46">
    <path d="M 355.2 307.584 
L 376.843636 307.584 
L 376.843636 288.609882 
L 355.2 288.609882 
z
" clip-path="url(#p4c58abe72e)" style="fill: #2ca02c; fill-opacity: 0.75; stroke: #000000; stroke-linejoin: miter"/>
   </g>
   <g id="patch_47">
    <path d="M 376.843636 307.584 
L 398.487273 307.584 
L 398.487273 287.254588 
L 376.843636 287.254588 
z
" clip-path="url(#p4c58abe72e)" style="fill: #2ca02c; fill-opacity: 0.75; stroke: #000000; stroke-linejoin: miter"/>
   </g>
   <g id="patch_48">
    <path d="M 73.832727 307.584 
L 95.476364 307.584 
L 95.476364 54.144 
L 73.832727 54.144 
z
" clip-path="url(#p4c58abe72e)" style="fill: #d62728; fill-opacity: 0.75; stroke: #000000; stroke-linejoin: miter"/>
   </g>
   <g id="patch_49">
    <path d="M 95.476364 307.584 
L 117.12 307.584 
L 117.12 79.894588 
L 95.476364 79.894588 
z
" clip-path="url(#p4c58abe72e)" style="fill: #d62728; fill-opacity: 0.75; stroke: #000000; stroke-linejoin: miter"/>
   </g>
   <g id="patch_50">
    <path d="M 117.12 307.584 
L 138.763636 307.584 
L 138.763636 161.212235 
L 117.12 161.212235 
z
" clip-path="url(#p4c58abe72e)" style="fill: #d62728; fill-opacity: 0.75; stroke: #000000; stroke-linejoin: miter"/>
   </g>
   <g id="patch_51">
    <path d="M 138.763636 307.584 
L 160.407273 307.584 
L 160.407273 212.713412 
L 138.763636 212.713412 
z
" clip-path="url(#p4c58abe72e)" style="fill: #d62728; fill-opacity: 0.75; stroke: #000000; stroke-linejoin: miter"/>
   </g>
   <g id="patch_52">
    <path d="M 160.407273 307.584 
L 182.050909 307.584 
L 182.050909 247.951059 
L 160.407273 247.951059 
z
" clip-path="url(#p4c58abe72e)" style="fill: #d62728; fill-opacity: 0.75; stroke: #000000; stroke-linejoin: miter"/>
   </g>
   <g id="patch_53">
    <path d="M 182.050909 307.584 
L 203.694545 307.584 
L 203.694545 241.174588 
L 182.050909 241.174588 
z
" clip-path="url(#p4c58abe72e)" style="fill: #d62728; fill-opacity: 0.75; stroke: #000000; stroke-linejoin: miter"/>
   </g>
   <g id="patch_54">
    <path d="M 203.694545 307.584 
L 225.338182 307.584 
L 225.338182 242.529882 
L 203.694545 242.529882 
z
" clip-path="url(#p4c58abe72e)" style="fill: #d62728; fill-opacity: 0.75; stroke: #000000; stroke-linejoin: miter"/>
   </g>
   <g id="patch_55">
    <path d="M 225.338182 307.584 
L 246.981818 307.584 
L 246.981818 262.859294 
L 225.338182 262.859294 
z
" clip-path="url(#p4c58abe72e)" style="fill: #d62728; fill-opacity: 0.75; stroke: #000000; stroke-linejoin: miter"/>
   </g>
   <g id="patch_56">
    <path d="M 246.981818 307.584 
L 268.625455 307.584 
L 268.625455 280.478118 
L 246.981818 280.478118 
z
" clip-path="url(#p4c58abe72e)" style="fill: #d62728; fill-opacity: 0.75; stroke: #000000; stroke-linejoin: miter"/>
   </g>
   <g id="patch_57">
    <path d="M 268.625455 307.584 
L 290.269091 307.584 
L 290.269091 285.899294 
L 268.625455 285.899294 
z
" clip-path="url(#p4c58abe72e)" style="fill: #d62728; fill-opacity: 0.75; stroke: #000000; stroke-linejoin: miter"/>
   </g>
   <g id="patch_58">
    <path d="M 290.269091 307.584 
L 311.912727 307.584 
L 311.912727 280.478118 
L 290.269091 280.478118 
z
" clip-path="url(#p4c58abe72e)" style="fill: #d62728; fill-opacity: 0.75; stroke: #000000; stroke-linejoin: miter"/>
   </g>
   <g id="patch_59">
    <path d="M 311.912727 307.584 
L 333.556364 307.584 
L 333.556364 292.675765 
L 311.912727 292.675765 
z
" clip-path="url(#p4c58abe72e)" style="fill: #d62728; fill-opacity: 0.75; stroke: #000000; stroke-linejoin: miter"/>
   </g>
   <g id="patch_60">
    <path d="M 333.556364 307.584 
L 355.2 307.584 
L 355.2 295.386353 
L 333.556364 295.386353 
z
" clip-path="url(#p4c58abe72e)" style="fill: #d62728; fill-opacity: 0.75; stroke: #000000; stroke-linejoin: miter"/>
   </g>
   <g id="patch_61">
    <path d="M 355.2 307.584 
L 376.843636 307.584 
L 376.843636 288.609882 
L 355.2 288.609882 
z
" clip-path="url(#p4c58abe72e)" style="fill: #d62728; fill-opacity: 0.75; stroke: #000000; stroke-linejoin: miter"/>
   </g>
   <g id="patch_62">
    <path d="M 376.843636 307.584 
L 398.487273 307.584 
L 398.487273 287.254588 
L 376.843636 287.254588 
z
" clip-path="url(#p4c58abe72e)" style="fill: #d62728; fill-opacity: 0.75; stroke: #000000; stroke-linejoin: miter"/>
   </g>
   <g id="patch_63">
    <path d="M 73.832727 307.584 
L 95.476364 307.584 
L 95.476364 54.144 
L 73.832727 54.144 
z
" clip-path="url(#p4c58abe72e)" style="fill: #9467bd; fill-opacity: 0.75; stroke: #000000; stroke-linejoin: miter"/>
   </g>
   <g id="patch_64">
    <path d="M 95.476364 307.584 
L 117.12 307.584 
L 117.12 79.894588 
L 95.476364 79.894588 
z
" clip-path="url(#p4c58abe72e)" style="fill: #9467bd; fill-opacity: 0.75; stroke: #000000; stroke-linejoin: miter"/>
   </g>
   <g id="patch_65">
    <path d="M 117.12 307.584 
L 138.763636 307.584 
L 138.763636 161.212235 
L 117.12 161.212235 
z
" clip-path="url(#p4c58abe72e)" style="fill: #9467bd; fill-opacity: 0.75; stroke: #000000; stroke-linejoin: miter"/>
   </g>
   <g id="patch_66">
    <path d="M 138.763636 307.584 
L 160.407273 307.584 
L 160.407273 212.713412 
L 138.763636 212.713412 
z
" clip-path="url(#p4c58abe72e)" style="fill: #9467bd; fill-opacity: 0.75; stroke: #000000; stroke-linejoin: miter"/>
   </g>
   <g id="patch_67">
    <path d="M 160.407273 307.584 
L 182.050909 307.584 
L 182.050909 247.951059 
L 160.407273 247.951059 
z
" clip-path="url(#p4c58abe72e)" style="fill: #9467bd; fill-opacity: 0.75; stroke: #000000; stroke-linejoin: miter"/>
   </g>
   <g id="patch_68">
    <path d="M 182.050909 307.584 
L 203.694545 307.584 
L 203.694545 241.174588 
L 182.050909 241.174588 
z
" clip-path="url(#p4c58abe72e)" style="fill: #9467bd; fill-opacity: 0.75; stroke: #000000; stroke-linejoin: miter"/>
   </g>
   <g id="patch_69">
    <path d="M 203.694545 307.584 
L 225.338182 307.584 
L 225.338182 242.529882 
L 203.694545 242.529882 
z
" clip-path="url(#p4c58abe72e)" style="fill: #9467bd; fill-opacity: 0.75; stroke: #000000; stroke-linejoin: miter"/>
   </g>
   <g id="patch_70">
    <path d="M 225.338182 307.584 
L 246.981818 307.584 
L 246.981818 262.859294 
L 225.338182 262.859294 
z
" clip-path="url(#p4c58abe72e)" style="fill: #9467bd; fill-opacity: 0.75; stroke: #000000; stroke-linejoin: miter"/>
   </g>
   <g id="patch_71">
    <path d="M 246.981818 307.584 
L 268.625455 307.584 
L 268.625455 280.478118 
L 246.981818 280.478118 
z
" clip-path="url(#p4c58abe72e)" style="fill: #9467bd; fill-opacity: 0.75; stroke: #000000; stroke-linejoin: miter"/>
   </g>
   <g id="patch_72">
    <path d="M 268.625455 307.584 
L 290.269091 307.584 
L 290.269091 285.899294 
L 268.625455 285.899294 
z
" clip-path="url(#p4c58abe72e)" style="fill: #9467bd; fill-opacity: 0.75; stroke: #000000; stroke-linejoin: miter"/>
   </g>
   <g id="patch_73">
    <path d="M 290.269091 307.584 
L 311.912727 307.584 
L 311.912727 280.478118 
L 290.269091 280.478118 
z
" clip-path="url(#p4c58abe72e)" style="fill: #9467bd; fill-opacity: 0.75; stroke: #000000; stroke-linejoin: miter"/>
   </g>
   <g id="patch_74">
    <path d="M 311.912727 307.584 
L 333.556364 307.584 
L 333.556364 292.675765 
L 311.912727 292.675765 
z
" clip-path="url(#p4c58abe72e)" style="fill: #9467bd; fill-opacity: 0.75; stroke: #000000; stroke-linejoin: miter"/>
   </g>
   <g id="patch_75">
    <path d="M 333.556364 307.584 
L 355.2 307.584 
L 355.2 295.386353 
L 333.556364 295.386353 
z
" clip-path="url(#p4c58abe72e)" style="fill: #9467bd; fill-opacity: 0.75; stroke: #000000; stroke-linejoin: miter"/>
   </g>
   <g id="patch_76">
    <path d="M 355.2 307.584 
L 376.843636 307.584 
L 376.843636 288.609882 
L 355.2 288.609882 
z
" clip-path="url(#p4c58abe72e)" style="fill: #9467bd; fill-opacity: 0.75; stroke: #000000; stroke-linejoin: miter"/>
   </g>
   <g id="patch_77">
    <path d="M 376.843636 307.584 
L 398.487273 307.584 
L 398.487273 287.254588 
L 376.843636 287.254588 
z
" clip-path="url(#p4c58abe72e)" style="fill: #9467bd; fill-opacity: 0.75; stroke: #000000; stroke-linejoin: miter"/>
   </g>
   <g id="matplotlib.axis_1">
    <g id="xtick_1">
     <g id="line2d_1">
      <defs>
       <path id="mf0b30ad2fc" d="M 0 0 
L 0 3.5 
" style="stroke: #000000; stroke-width: 0.8"/>
      </defs>
      <g>
       <use xlink:href="#mf0b30ad2fc" x="69.127589" y="307.584" style="stroke: #000000; stroke-width: 0.8"/>
      </g>
     </g>
     <g id="text_1">
      <!-- 0 -->
      <g transform="translate(65.946339 322.182437) scale(0.1 -0.1)">
       <defs>
        <path id="DejaVuSans-30" d="M 2034 4250 
Q 1547 4250 1301 3770 
Q 1056 3291 1056 2328 
Q 1056 1369 1301 889 
Q 1547 409 2034 409 
Q 2525 409 2770 889 
Q 3016 1369 3016 2328 
Q 3016 3291 2770 3770 
Q 2525 4250 2034 4250 
z
M 2034 4750 
Q 2819 4750 3233 4129 
Q 3647 3509 3647 2328 
Q 3647 1150 3233 529 
Q 2819 -91 2034 -91 
Q 1250 -91 836 529 
Q 422 1150 422 2328 
Q 422 3509 836 4129 
Q 1250 4750 2034 4750 
z
" transform="scale(0.015625)"/>
       </defs>
       <use xlink:href="#DejaVuSans-30"/>
      </g>
     </g>
    </g>
    <g id="xtick_2">
     <g id="line2d_2">
      <g>
       <use xlink:href="#mf0b30ad2fc" x="127.941818" y="307.584" style="stroke: #000000; stroke-width: 0.8"/>
      </g>
     </g>
     <g id="text_2">
      <!-- 50 -->
      <g transform="translate(121.579318 322.182437) scale(0.1 -0.1)">
       <defs>
        <path id="DejaVuSans-35" d="M 691 4666 
L 3169 4666 
L 3169 4134 
L 1269 4134 
L 1269 2991 
Q 1406 3038 1543 3061 
Q 1681 3084 1819 3084 
Q 2600 3084 3056 2656 
Q 3513 2228 3513 1497 
Q 3513 744 3044 326 
Q 2575 -91 1722 -91 
Q 1428 -91 1123 -41 
Q 819 9 494 109 
L 494 744 
Q 775 591 1075 516 
Q 1375 441 1709 441 
Q 2250 441 2565 725 
Q 2881 1009 2881 1497 
Q 2881 1984 2565 2268 
Q 2250 2553 1709 2553 
Q 1456 2553 1204 2497 
Q 953 2441 691 2322 
L 691 4666 
z
" transform="scale(0.015625)"/>
       </defs>
       <use xlink:href="#DejaVuSans-35"/>
       <use xlink:href="#DejaVuSans-30" x="63.623047"/>
      </g>
     </g>
    </g>
    <g id="xtick_3">
     <g id="line2d_3">
      <g>
       <use xlink:href="#mf0b30ad2fc" x="186.756047" y="307.584" style="stroke: #000000; stroke-width: 0.8"/>
      </g>
     </g>
     <g id="text_3">
      <!-- 100 -->
      <g transform="translate(177.212297 322.182437) scale(0.1 -0.1)">
       <defs>
        <path id="DejaVuSans-31" d="M 794 531 
L 1825 531 
L 1825 4091 
L 703 3866 
L 703 4441 
L 1819 4666 
L 2450 4666 
L 2450 531 
L 3481 531 
L 3481 0 
L 794 0 
L 794 531 
z
" transform="scale(0.015625)"/>
       </defs>
       <use xlink:href="#DejaVuSans-31"/>
       <use xlink:href="#DejaVuSans-30" x="63.623047"/>
       <use xlink:href="#DejaVuSans-30" x="127.246094"/>
      </g>
     </g>
    </g>
    <g id="xtick_4">
     <g id="line2d_4">
      <g>
       <use xlink:href="#mf0b30ad2fc" x="245.570277" y="307.584" style="stroke: #000000; stroke-width: 0.8"/>
      </g>
     </g>
     <g id="text_4">
      <!-- 150 -->
      <g transform="translate(236.026527 322.182437) scale(0.1 -0.1)">
       <use xlink:href="#DejaVuSans-31"/>
       <use xlink:href="#DejaVuSans-35" x="63.623047"/>
       <use xlink:href="#DejaVuSans-30" x="127.246094"/>
      </g>
     </g>
    </g>
    <g id="xtick_5">
     <g id="line2d_5">
      <g>
       <use xlink:href="#mf0b30ad2fc" x="304.384506" y="307.584" style="stroke: #000000; stroke-width: 0.8"/>
      </g>
     </g>
     <g id="text_5">
      <!-- 200 -->
      <g transform="translate(294.840756 322.182437) scale(0.1 -0.1)">
       <defs>
        <path id="DejaVuSans-32" d="M 1228 531 
L 3431 531 
L 3431 0 
L 469 0 
L 469 531 
Q 828 903 1448 1529 
Q 2069 2156 2228 2338 
Q 2531 2678 2651 2914 
Q 2772 3150 2772 3378 
Q 2772 3750 2511 3984 
Q 2250 4219 1831 4219 
Q 1534 4219 1204 4116 
Q 875 4013 500 3803 
L 500 4441 
Q 881 4594 1212 4672 
Q 1544 4750 1819 4750 
Q 2544 4750 2975 4387 
Q 3406 4025 3406 3419 
Q 3406 3131 3298 2873 
Q 3191 2616 2906 2266 
Q 2828 2175 2409 1742 
Q 1991 1309 1228 531 
z
" transform="scale(0.015625)"/>
       </defs>
       <use xlink:href="#DejaVuSans-32"/>
       <use xlink:href="#DejaVuSans-30" x="63.623047"/>
       <use xlink:href="#DejaVuSans-30" x="127.246094"/>
      </g>
     </g>
    </g>
    <g id="xtick_6">
     <g id="line2d_6">
      <g>
       <use xlink:href="#mf0b30ad2fc" x="363.198735" y="307.584" style="stroke: #000000; stroke-width: 0.8"/>
      </g>
     </g>
     <g id="text_6">
      <!-- 250 -->
      <g transform="translate(353.654985 322.182437) scale(0.1 -0.1)">
       <use xlink:href="#DejaVuSans-32"/>
       <use xlink:href="#DejaVuSans-35" x="63.623047"/>
       <use xlink:href="#DejaVuSans-30" x="127.246094"/>
      </g>
     </g>
    </g>
    <g id="text_7">
     <!-- Cantidad de Caracteres -->
     <g transform="translate(177.16 335.860562) scale(0.1 -0.1)">
      <defs>
       <path id="DejaVuSans-43" d="M 4122 4306 
L 4122 3641 
Q 3803 3938 3442 4084 
Q 3081 4231 2675 4231 
Q 1875 4231 1450 3742 
Q 1025 3253 1025 2328 
Q 1025 1406 1450 917 
Q 1875 428 2675 428 
Q 3081 428 3442 575 
Q 3803 722 4122 1019 
L 4122 359 
Q 3791 134 3420 21 
Q 3050 -91 2638 -91 
Q 1578 -91 968 557 
Q 359 1206 359 2328 
Q 359 3453 968 4101 
Q 1578 4750 2638 4750 
Q 3056 4750 3426 4639 
Q 3797 4528 4122 4306 
z
" transform="scale(0.015625)"/>
       <path id="DejaVuSans-61" d="M 2194 1759 
Q 1497 1759 1228 1600 
Q 959 1441 959 1056 
Q 959 750 1161 570 
Q 1363 391 1709 391 
Q 2188 391 2477 730 
Q 2766 1069 2766 1631 
L 2766 1759 
L 2194 1759 
z
M 3341 1997 
L 3341 0 
L 2766 0 
L 2766 531 
Q 2569 213 2275 61 
Q 1981 -91 1556 -91 
Q 1019 -91 701 211 
Q 384 513 384 1019 
Q 384 1609 779 1909 
Q 1175 2209 1959 2209 
L 2766 2209 
L 2766 2266 
Q 2766 2663 2505 2880 
Q 2244 3097 1772 3097 
Q 1472 3097 1187 3025 
Q 903 2953 641 2809 
L 641 3341 
Q 956 3463 1253 3523 
Q 1550 3584 1831 3584 
Q 2591 3584 2966 3190 
Q 3341 2797 3341 1997 
z
" transform="scale(0.015625)"/>
       <path id="DejaVuSans-6e" d="M 3513 2113 
L 3513 0 
L 2938 0 
L 2938 2094 
Q 2938 2591 2744 2837 
Q 2550 3084 2163 3084 
Q 1697 3084 1428 2787 
Q 1159 2491 1159 1978 
L 1159 0 
L 581 0 
L 581 3500 
L 1159 3500 
L 1159 2956 
Q 1366 3272 1645 3428 
Q 1925 3584 2291 3584 
Q 2894 3584 3203 3211 
Q 3513 2838 3513 2113 
z
" transform="scale(0.015625)"/>
       <path id="DejaVuSans-74" d="M 1172 4494 
L 1172 3500 
L 2356 3500 
L 2356 3053 
L 1172 3053 
L 1172 1153 
Q 1172 725 1289 603 
Q 1406 481 1766 481 
L 2356 481 
L 2356 0 
L 1766 0 
Q 1100 0 847 248 
Q 594 497 594 1153 
L 594 3053 
L 172 3053 
L 172 3500 
L 594 3500 
L 594 4494 
L 1172 4494 
z
" transform="scale(0.015625)"/>
       <path id="DejaVuSans-69" d="M 603 3500 
L 1178 3500 
L 1178 0 
L 603 0 
L 603 3500 
z
M 603 4863 
L 1178 4863 
L 1178 4134 
L 603 4134 
L 603 4863 
z
" transform="scale(0.015625)"/>
       <path id="DejaVuSans-64" d="M 2906 2969 
L 2906 4863 
L 3481 4863 
L 3481 0 
L 2906 0 
L 2906 525 
Q 2725 213 2448 61 
Q 2172 -91 1784 -91 
Q 1150 -91 751 415 
Q 353 922 353 1747 
Q 353 2572 751 3078 
Q 1150 3584 1784 3584 
Q 2172 3584 2448 3432 
Q 2725 3281 2906 2969 
z
M 947 1747 
Q 947 1113 1208 752 
Q 1469 391 1925 391 
Q 2381 391 2643 752 
Q 2906 1113 2906 1747 
Q 2906 2381 2643 2742 
Q 2381 3103 1925 3103 
Q 1469 3103 1208 2742 
Q 947 2381 947 1747 
z
" transform="scale(0.015625)"/>
       <path id="DejaVuSans-20" transform="scale(0.015625)"/>
       <path id="DejaVuSans-65" d="M 3597 1894 
L 3597 1613 
L 953 1613 
Q 991 1019 1311 708 
Q 1631 397 2203 397 
Q 2534 397 2845 478 
Q 3156 559 3463 722 
L 3463 178 
Q 3153 47 2828 -22 
Q 2503 -91 2169 -91 
Q 1331 -91 842 396 
Q 353 884 353 1716 
Q 353 2575 817 3079 
Q 1281 3584 2069 3584 
Q 2775 3584 3186 3129 
Q 3597 2675 3597 1894 
z
M 3022 2063 
Q 3016 2534 2758 2815 
Q 2500 3097 2075 3097 
Q 1594 3097 1305 2825 
Q 1016 2553 972 2059 
L 3022 2063 
z
" transform="scale(0.015625)"/>
       <path id="DejaVuSans-72" d="M 2631 2963 
Q 2534 3019 2420 3045 
Q 2306 3072 2169 3072 
Q 1681 3072 1420 2755 
Q 1159 2438 1159 1844 
L 1159 0 
L 581 0 
L 581 3500 
L 1159 3500 
L 1159 2956 
Q 1341 3275 1631 3429 
Q 1922 3584 2338 3584 
Q 2397 3584 2469 3576 
Q 2541 3569 2628 3553 
L 2631 2963 
z
" transform="scale(0.015625)"/>
       <path id="DejaVuSans-63" d="M 3122 3366 
L 3122 2828 
Q 2878 2963 2633 3030 
Q 2388 3097 2138 3097 
Q 1578 3097 1268 2742 
Q 959 2388 959 1747 
Q 959 1106 1268 751 
Q 1578 397 2138 397 
Q 2388 397 2633 464 
Q 2878 531 3122 666 
L 3122 134 
Q 2881 22 2623 -34 
Q 2366 -91 2075 -91 
Q 1284 -91 818 406 
Q 353 903 353 1747 
Q 353 2603 823 3093 
Q 1294 3584 2113 3584 
Q 2378 3584 2631 3529 
Q 2884 3475 3122 3366 
z
" transform="scale(0.015625)"/>
       <path id="DejaVuSans-73" d="M 2834 3397 
L 2834 2853 
Q 2591 2978 2328 3040 
Q 2066 3103 1784 3103 
Q 1356 3103 1142 2972 
Q 928 2841 928 2578 
Q 928 2378 1081 2264 
Q 1234 2150 1697 2047 
L 1894 2003 
Q 2506 1872 2764 1633 
Q 3022 1394 3022 966 
Q 3022 478 2636 193 
Q 2250 -91 1575 -91 
Q 1294 -91 989 -36 
Q 684 19 347 128 
L 347 722 
Q 666 556 975 473 
Q 1284 391 1588 391 
Q 1994 391 2212 530 
Q 2431 669 2431 922 
Q 2431 1156 2273 1281 
Q 2116 1406 1581 1522 
L 1381 1569 
Q 847 1681 609 1914 
Q 372 2147 372 2553 
Q 372 3047 722 3315 
Q 1072 3584 1716 3584 
Q 2034 3584 2315 3537 
Q 2597 3491 2834 3397 
z
" transform="scale(0.015625)"/>
      </defs>
      <use xlink:href="#DejaVuSans-43"/>
      <use xlink:href="#DejaVuSans-61" x="69.824219"/>
      <use xlink:href="#DejaVuSans-6e" x="131.103516"/>
      <use xlink:href="#DejaVuSans-74" x="194.482422"/>
      <use xlink:href="#DejaVuSans-69" x="233.691406"/>
      <use xlink:href="#DejaVuSans-64" x="261.474609"/>
      <use xlink:href="#DejaVuSans-61" x="324.951172"/>
      <use xlink:href="#DejaVuSans-64" x="386.230469"/>
      <use xlink:href="#DejaVuSans-20" x="449.707031"/>
      <use xlink:href="#DejaVuSans-64" x="481.494141"/>
      <use xlink:href="#DejaVuSans-65" x="544.970703"/>
      <use xlink:href="#DejaVuSans-20" x="606.494141"/>
      <use xlink:href="#DejaVuSans-43" x="638.28125"/>
      <use xlink:href="#DejaVuSans-61" x="708.105469"/>
      <use xlink:href="#DejaVuSans-72" x="769.384766"/>
      <use xlink:href="#DejaVuSans-61" x="810.498047"/>
      <use xlink:href="#DejaVuSans-63" x="871.777344"/>
      <use xlink:href="#DejaVuSans-74" x="926.757812"/>
      <use xlink:href="#DejaVuSans-65" x="965.966797"/>
      <use xlink:href="#DejaVuSans-72" x="1027.490234"/>
      <use xlink:href="#DejaVuSans-65" x="1066.353516"/>
      <use xlink:href="#DejaVuSans-73" x="1127.876953"/>
     </g>
    </g>
   </g>
   <g id="matplotlib.axis_2">
    <g id="ytick_1">
     <g id="line2d_7">
      <defs>
       <path id="ma43e2c8cf6" d="M 0 0 
L -3.5 0 
" style="stroke: #000000; stroke-width: 0.8"/>
      </defs>
      <g>
       <use xlink:href="#ma43e2c8cf6" x="57.6" y="307.584" style="stroke: #000000; stroke-width: 0.8"/>
      </g>
     </g>
     <g id="text_8">
      <!-- 0 -->
      <g transform="translate(44.2375 311.383219) scale(0.1 -0.1)">
       <use xlink:href="#DejaVuSans-30"/>
      </g>
     </g>
    </g>
    <g id="ytick_2">
     <g id="line2d_8">
      <g>
       <use xlink:href="#ma43e2c8cf6" x="57.6" y="273.701647" style="stroke: #000000; stroke-width: 0.8"/>
      </g>
     </g>
     <g id="text_9">
      <!-- 25 -->
      <g transform="translate(37.875 277.500866) scale(0.1 -0.1)">
       <use xlink:href="#DejaVuSans-32"/>
       <use xlink:href="#DejaVuSans-35" x="63.623047"/>
      </g>
     </g>
    </g>
    <g id="ytick_3">
     <g id="line2d_9">
      <g>
       <use xlink:href="#ma43e2c8cf6" x="57.6" y="239.819294" style="stroke: #000000; stroke-width: 0.8"/>
      </g>
     </g>
     <g id="text_10">
      <!-- 50 -->
      <g transform="translate(37.875 243.618513) scale(0.1 -0.1)">
       <use xlink:href="#DejaVuSans-35"/>
       <use xlink:href="#DejaVuSans-30" x="63.623047"/>
      </g>
     </g>
    </g>
    <g id="ytick_4">
     <g id="line2d_10">
      <g>
       <use xlink:href="#ma43e2c8cf6" x="57.6" y="205.936941" style="stroke: #000000; stroke-width: 0.8"/>
      </g>
     </g>
     <g id="text_11">
      <!-- 75 -->
      <g transform="translate(37.875 209.73616) scale(0.1 -0.1)">
       <defs>
        <path id="DejaVuSans-37" d="M 525 4666 
L 3525 4666 
L 3525 4397 
L 1831 0 
L 1172 0 
L 2766 4134 
L 525 4134 
L 525 4666 
z
" transform="scale(0.015625)"/>
       </defs>
       <use xlink:href="#DejaVuSans-37"/>
       <use xlink:href="#DejaVuSans-35" x="63.623047"/>
      </g>
     </g>
    </g>
    <g id="ytick_5">
     <g id="line2d_11">
      <g>
       <use xlink:href="#ma43e2c8cf6" x="57.6" y="172.054588" style="stroke: #000000; stroke-width: 0.8"/>
      </g>
     </g>
     <g id="text_12">
      <!-- 100 -->
      <g transform="translate(31.5125 175.853807) scale(0.1 -0.1)">
       <use xlink:href="#DejaVuSans-31"/>
       <use xlink:href="#DejaVuSans-30" x="63.623047"/>
       <use xlink:href="#DejaVuSans-30" x="127.246094"/>
      </g>
     </g>
    </g>
    <g id="ytick_6">
     <g id="line2d_12">
      <g>
       <use xlink:href="#ma43e2c8cf6" x="57.6" y="138.172235" style="stroke: #000000; stroke-width: 0.8"/>
      </g>
     </g>
     <g id="text_13">
      <!-- 125 -->
      <g transform="translate(31.5125 141.971454) scale(0.1 -0.1)">
       <use xlink:href="#DejaVuSans-31"/>
       <use xlink:href="#DejaVuSans-32" x="63.623047"/>
       <use xlink:href="#DejaVuSans-35" x="127.246094"/>
      </g>
     </g>
    </g>
    <g id="ytick_7">
     <g id="line2d_13">
      <g>
       <use xlink:href="#ma43e2c8cf6" x="57.6" y="104.289882" style="stroke: #000000; stroke-width: 0.8"/>
      </g>
     </g>
     <g id="text_14">
      <!-- 150 -->
      <g transform="translate(31.5125 108.089101) scale(0.1 -0.1)">
       <use xlink:href="#DejaVuSans-31"/>
       <use xlink:href="#DejaVuSans-35" x="63.623047"/>
       <use xlink:href="#DejaVuSans-30" x="127.246094"/>
      </g>
     </g>
    </g>
    <g id="ytick_8">
     <g id="line2d_14">
      <g>
       <use xlink:href="#ma43e2c8cf6" x="57.6" y="70.407529" style="stroke: #000000; stroke-width: 0.8"/>
      </g>
     </g>
     <g id="text_15">
      <!-- 175 -->
      <g transform="translate(31.5125 74.206748) scale(0.1 -0.1)">
       <use xlink:href="#DejaVuSans-31"/>
       <use xlink:href="#DejaVuSans-37" x="63.623047"/>
       <use xlink:href="#DejaVuSans-35" x="127.246094"/>
      </g>
     </g>
    </g>
    <g id="text_16">
     <!-- Conteo -->
     <g transform="translate(25.432812 192.343625) rotate(-90) scale(0.1 -0.1)">
      <defs>
       <path id="DejaVuSans-6f" d="M 1959 3097 
Q 1497 3097 1228 2736 
Q 959 2375 959 1747 
Q 959 1119 1226 758 
Q 1494 397 1959 397 
Q 2419 397 2687 759 
Q 2956 1122 2956 1747 
Q 2956 2369 2687 2733 
Q 2419 3097 1959 3097 
z
M 1959 3584 
Q 2709 3584 3137 3096 
Q 3566 2609 3566 1747 
Q 3566 888 3137 398 
Q 2709 -91 1959 -91 
Q 1206 -91 779 398 
Q 353 888 353 1747 
Q 353 2609 779 3096 
Q 1206 3584 1959 3584 
z
" transform="scale(0.015625)"/>
      </defs>
      <use xlink:href="#DejaVuSans-43"/>
      <use xlink:href="#DejaVuSans-6f" x="69.824219"/>
      <use xlink:href="#DejaVuSans-6e" x="131.005859"/>
      <use xlink:href="#DejaVuSans-74" x="194.384766"/>
      <use xlink:href="#DejaVuSans-65" x="233.59375"/>
      <use xlink:href="#DejaVuSans-6f" x="295.117188"/>
     </g>
    </g>
   </g>
   <g id="patch_78">
    <path d="M 57.6 307.584 
L 57.6 41.472 
" style="fill: none; stroke: #000000; stroke-width: 0.8; stroke-linejoin: miter; stroke-linecap: square"/>
   </g>
   <g id="patch_79">
    <path d="M 414.72 307.584 
L 414.72 41.472 
" style="fill: none; stroke: #000000; stroke-width: 0.8; stroke-linejoin: miter; stroke-linecap: square"/>
   </g>
   <g id="patch_80">
    <path d="M 57.6 307.584 
L 414.72 307.584 
" style="fill: none; stroke: #000000; stroke-width: 0.8; stroke-linejoin: miter; stroke-linecap: square"/>
   </g>
   <g id="patch_81">
    <path d="M 57.6 41.472 
L 414.72 41.472 
" style="fill: none; stroke: #000000; stroke-width: 0.8; stroke-linejoin: miter; stroke-linecap: square"/>
   </g>
  </g>
 </g>
 <defs>
  <clipPath id="p4c58abe72e">
   <rect x="57.6" y="41.472" width="357.12" height="266.112"/>
  </clipPath>
 </defs>
</svg>
